<svg width="28" height="28" viewBox="0 0 28 28" fill="none" xmlns="http://www.w3.org/2000/svg">
    <mask id="path-1-inside-1_1513_12335" fill="white">
        <path d="M23.5579 6.11236L23.0737 5.00126L23.5579 6.11236ZM13.8749 10.2173L13.3906 11.3284L13.8749 10.2173ZM4.45591 6.11236L3.97167 7.22346L4.45591 6.11236ZM5.20533 22.0819V6.41538H2.78125V22.0819H5.20533ZM3.97167 7.22346L13.3906 11.3284L14.3591 9.10622L4.94016 5.00126L3.97167 7.22346ZM14.6232 11.3284L24.0421 7.22346L23.0737 5.00126L13.6547 9.10622L14.6232 11.3284ZM22.8085 6.41538V22.0819H25.2326V6.41538H22.8085ZM24.0421 7.22346C23.4598 7.47721 22.8085 7.05052 22.8085 6.41538H25.2326C25.2326 5.30387 24.0926 4.55718 23.0737 5.00126L24.0421 7.22346ZM13.3906 11.3284C13.7836 11.4997 14.2302 11.4997 14.6232 11.3284L13.6547 9.10622C13.8793 9.00833 14.1345 9.00833 14.3591 9.10622L13.3906 11.3284ZM5.20533 6.41538C5.20533 7.05053 4.55392 7.47721 3.97167 7.22346L4.94016 5.00126C3.9212 4.55718 2.78125 5.30387 2.78125 6.41538H5.20533Z"/>
    </mask>
    <path d="M23.5579 6.11236L23.0737 5.00126L23.5579 6.11236ZM13.8749 10.2173L13.3906 11.3284L13.8749 10.2173ZM4.45591 6.11236L3.97167 7.22346L4.45591 6.11236ZM5.20533 22.0819V6.41538H2.78125V22.0819H5.20533ZM3.97167 7.22346L13.3906 11.3284L14.3591 9.10622L4.94016 5.00126L3.97167 7.22346ZM14.6232 11.3284L24.0421 7.22346L23.0737 5.00126L13.6547 9.10622L14.6232 11.3284ZM22.8085 6.41538V22.0819H25.2326V6.41538H22.8085ZM24.0421 7.22346C23.4598 7.47721 22.8085 7.05052 22.8085 6.41538H25.2326C25.2326 5.30387 24.0926 4.55718 23.0737 5.00126L24.0421 7.22346ZM13.3906 11.3284C13.7836 11.4997 14.2302 11.4997 14.6232 11.3284L13.6547 9.10622C13.8793 9.00833 14.1345 9.00833 14.3591 9.10622L13.3906 11.3284ZM5.20533 6.41538C5.20533 7.05053 4.55392 7.47721 3.97167 7.22346L4.94016 5.00126C3.9212 4.55718 2.78125 5.30387 2.78125 6.41538H5.20533Z" fill="#212121"/>
    <path d="M5.20533 22.0819V23.099H6.22242V22.0819H5.20533ZM5.20533 6.41538H6.22242V5.39829H5.20533V6.41538ZM2.78125 6.41538V5.39829H1.76416V6.41538H2.78125ZM2.78125 22.0819H1.76416V23.099H2.78125V22.0819ZM3.97167 7.22346L3.03927 6.8171L2.63291 7.7495L3.56531 8.15585L3.97167 7.22346ZM13.3906 11.3284L12.9842 12.2608L13.9166 12.6671L14.3229 11.7348L13.3906 11.3284ZM14.3591 9.10622L15.2915 9.5126L15.6979 8.58019L14.7654 8.17382L14.3591 9.10622ZM4.94016 5.00126L5.34651 4.06886L4.41412 3.66251L4.00776 4.5949L4.94016 5.00126ZM14.6232 11.3284L13.6909 11.7348L14.0972 12.6671L15.0296 12.2608L14.6232 11.3284ZM24.0421 7.22346L24.4484 8.15585L25.3808 7.7495L24.9745 6.81712L24.0421 7.22346ZM23.0737 5.00126L24.0061 4.59492L23.5997 3.6625L22.6673 4.06886L23.0737 5.00126ZM13.6547 9.10622L13.2484 8.17382L12.3159 8.58019L12.7223 9.5126L13.6547 9.10622ZM22.8085 6.41538V5.39829H21.7914V6.41538H22.8085ZM22.8085 22.0819H21.7914V23.099H22.8085V22.0819ZM25.2326 22.0819V23.099H26.2497V22.0819H25.2326ZM25.2326 6.41538H26.2497V5.39829H25.2326V6.41538ZM24.0421 7.22346L24.4484 8.15585L25.3808 7.74951L24.9745 6.81712L24.0421 7.22346ZM22.8085 6.41538V5.39829H21.7914V6.41538H22.8085ZM25.2326 6.41538V7.43248H26.2497V6.41538H25.2326ZM23.0737 5.00126L22.6673 4.06886L21.7349 4.47521L22.1413 5.40759L23.0737 5.00126ZM13.3906 11.3284L12.4582 10.922L12.0518 11.8544L12.9842 12.2608L13.3906 11.3284ZM14.6232 11.3284L15.0296 12.2608L15.962 11.8544L15.5556 10.922L14.6232 11.3284ZM13.6547 9.10622L13.2484 8.17383L12.3159 8.5802L12.7223 9.5126L13.6547 9.10622ZM14.3591 9.10622L15.2915 9.5126L15.6979 8.5802L14.7654 8.17383L14.3591 9.10622ZM5.20533 6.41538H6.22242V5.39829H5.20533V6.41538ZM3.97167 7.22346L3.03927 6.8171L2.63291 7.7495L3.56532 8.15585L3.97167 7.22346ZM4.94016 5.00126L5.87255 5.40761L6.27891 4.47522L5.34651 4.06886L4.94016 5.00126ZM2.78125 6.41538H1.76416V7.43248H2.78125V6.41538ZM24.4903 5.70602L24.0061 4.59492L22.1413 5.4076L22.6255 6.5187L24.4903 5.70602ZM22.1413 5.4076L22.6255 6.5187L24.4903 5.70602L24.0061 4.59492L22.1413 5.4076ZM12.9425 9.81089L12.4582 10.922L14.3229 11.7348L14.8072 10.6237L12.9425 9.81089ZM14.3229 11.7348L14.8072 10.6237L12.9425 9.81089L12.4582 10.922L14.3229 11.7348ZM3.52352 5.706L3.03927 6.8171L4.90406 7.62982L5.3883 6.51872L3.52352 5.706ZM4.90406 7.62982L5.3883 6.51872L3.52352 5.706L3.03927 6.8171L4.90406 7.62982ZM6.22242 22.0819V6.41538H4.18823V22.0819H6.22242ZM5.20533 5.39829H2.78125V7.43248H5.20533V5.39829ZM1.76416 6.41538V22.0819H3.79834V6.41538H1.76416ZM2.78125 23.099H5.20533V21.0648H2.78125V23.099ZM3.56531 8.15585L12.9842 12.2608L13.7969 10.396L4.37802 6.29106L3.56531 8.15585ZM14.3229 11.7348L15.2915 9.5126L13.4267 8.69984L12.4582 10.922L14.3229 11.7348ZM14.7654 8.17382L5.34651 4.06886L4.5338 5.93365L13.9527 10.0386L14.7654 8.17382ZM4.00776 4.5949L3.03927 6.8171L4.90406 7.62982L5.87255 5.40761L4.00776 4.5949ZM15.0296 12.2608L24.4484 8.15585L23.6357 6.29107L14.2169 10.396L15.0296 12.2608ZM24.9745 6.81712L24.0061 4.59492L22.1413 5.40759L23.1097 7.6298L24.9745 6.81712ZM22.6673 4.06886L13.2484 8.17382L14.0611 10.0386L23.48 5.93365L22.6673 4.06886ZM12.7223 9.5126L13.6909 11.7348L15.5556 10.922L14.5871 8.69984L12.7223 9.5126ZM21.7914 6.41538V22.0819H23.8256V6.41538H21.7914ZM22.8085 23.099H25.2326V21.0648H22.8085V23.099ZM26.2497 22.0819V6.41538H24.2155V22.0819H26.2497ZM25.2326 5.39829H22.8085V7.43248H25.2326V5.39829ZM23.6357 6.29106C23.7253 6.25201 23.8256 6.31769 23.8256 6.41538H21.7914C21.7914 7.78335 23.1943 8.70241 24.4484 8.15585L23.6357 6.29106ZM22.8085 7.43248H25.2326V5.39829H22.8085V7.43248ZM26.2497 6.41538C26.2497 4.57101 24.3581 3.33199 22.6673 4.06886L23.48 5.93365C23.8271 5.78236 24.2155 6.03674 24.2155 6.41538H26.2497ZM22.1413 5.40759L23.1097 7.6298L24.9745 6.81712L24.0061 4.59492L22.1413 5.40759ZM12.9842 12.2608C13.6364 12.545 14.3774 12.545 15.0296 12.2608L14.2169 10.396C14.0829 10.4544 13.9309 10.4544 13.7969 10.396L12.9842 12.2608ZM15.5556 10.922L14.5871 8.69984L12.7223 9.5126L13.6909 11.7348L15.5556 10.922ZM14.0611 10.0386C14.0265 10.0537 13.9873 10.0537 13.9527 10.0386L14.7654 8.17383C14.2817 7.96301 13.7321 7.96301 13.2484 8.17383L14.0611 10.0386ZM13.4267 8.69984L12.4582 10.922L14.3229 11.7348L15.2915 9.5126L13.4267 8.69984ZM4.18823 6.41538C4.18823 6.31766 4.28846 6.25203 4.37801 6.29106L3.56532 8.15585C4.81939 8.70239 6.22242 7.7834 6.22242 6.41538H4.18823ZM4.90406 7.62982L5.87255 5.40761L4.00776 4.5949L3.03927 6.8171L4.90406 7.62982ZM5.34651 4.06886C3.65573 3.33199 1.76416 4.57101 1.76416 6.41538H3.79834C3.79834 6.03674 4.18667 5.78236 4.5338 5.93365L5.34651 4.06886ZM2.78125 7.43248H5.20533V5.39829H2.78125V7.43248Z" fill="#212121" mask="url(#path-1-inside-1_1513_12335)"/>
    <path d="M5.96094 14.8242H10.7735H5.96094ZM16.9011 14.8242H21.7136H16.9011ZM5.96094 17.903H10.7735H5.96094ZM16.9011 17.903H21.7136H16.9011Z" fill="#212121"/>
    <path d="M5.96094 14.8242H10.7735M16.9011 14.8242H21.7136M5.96094 17.903H10.7735M16.9011 17.903H21.7136" stroke="#212121" stroke-width="1.77991"/>
</svg>
